<mxfile host="app.diagrams.net" modified="2023-12-17T10:33:06.778Z" agent="Mozilla/5.0 (Windows NT 10.0; Win64; x64) AppleWebKit/537.36 (KHTML, like Gecko) Chrome/120.0.0.0 Safari/537.36" version="22.1.11" etag="1wPrxq-nM-ca1XpwsaKp" type="github">
  <diagram name="Страница — 1" id="3g1diVZyi88-PTpCIeeH">
    <mxGraphModel>
      <root>
        <mxCell id="0" />
        <mxCell id="1" parent="0" />
      </root>
    </mxGraphModel>
  </diagram>
</mxfile>
